<svg xmlns="http://www.w3.org/2000/svg" width="72" height="72" viewBox="0 0 72 72">
  <defs>
    <mask id="veinMask">
      <rect width="72" height="72" fill="white"/>
      <path d="M22 27 C31 28, 42 33, 48 49"
            stroke="black" stroke-width="2.4" fill="none" stroke-linecap="round"/>
    </mask>
  </defs>

  <!-- Green leaf/top-left -->
  <path mask="url(#veinMask)"
        d="M12 18
           C12 10,18 9,26 9
           H36
           C48 9,50 18,50 28
           V50
           C50 38,42 30,31 30
           H20
           C15 30,12 26,12 18 Z"
        fill="#76A998"/>

  <!-- Purple top-right -->
  <path d="M50 9
           H61
           C67 9,70 14,70 20
           V22
           C70 28,66 32,60 32
           H54
           C51 32,50 30,50 27 Z"
        fill="#B6A3D3"/>

  <!-- Coral stem -->
  <path d="M29 30
           H41
           C47 30,50 34,50 40
           V58
           C50 65,45 70,39 70
           H39
           C33 70,29 65,29 58 Z"
        fill="#EA8D82"/>
</svg>