<?xml version="1.0" encoding="UTF-8" standalone="no"?><!DOCTYPE svg PUBLIC "-//W3C//DTD SVG 1.1//EN" "http://www.w3.org/Graphics/SVG/1.1/DTD/svg11.dtd"><svg width="100%" height="100%" viewBox="0 0 512 512" version="1.1" xmlns="http://www.w3.org/2000/svg" xmlns:xlink="http://www.w3.org/1999/xlink" xml:space="preserve" xmlns:serif="http://www.serif.com/" style="fill-rule:evenodd;clip-rule:evenodd;stroke-linejoin:round;stroke-miterlimit:2;"><g id="BG-logo-for-hero" serif:id="BG logo for hero"><rect x="0" y="0" width="512" height="512" style="fill:#fff;"/></g><g><path d="M190.488,122.982c65.287,0 118.212,52.926 118.212,118.212l-0,89.328c-0,15.676 -6.227,30.71 -17.312,41.795c-11.084,11.084 -26.118,17.311 -41.794,17.311c-0,0 -0,0 -0.001,0c-15.675,0 -30.709,-6.227 -41.794,-17.311c-11.084,-11.085 -17.312,-26.119 -17.312,-41.795l0,-207.54l0.001,0Z" style="fill:#f49185;"/><path d="M304.65,233.439l-114.163,0l0,15.568l71.892,0c15.725,0 30.747,6.513 41.495,17.99c2.806,2.997 4.826,5.153 4.826,5.153l-4.05,-38.711Z" style="fill:#f17162;"/><path d="M308.7,279.471c-0,0 -0,-0 -0,-0.001c-4.364,-22.237 -23.856,-38.275 -46.517,-38.275c-30.499,-0 -73.4,-0 -108.112,-0c-15.676,-0 -30.71,-6.227 -41.795,-17.312c-11.084,-11.084 -17.311,-26.118 -17.311,-41.794c-0,-0 -0,-0.001 -0,-0.001c-0,-15.676 6.227,-30.709 17.311,-41.794c11.085,-11.084 26.119,-17.312 41.795,-17.312c12.274,0 25.606,0 39.124,0c30.634,0 60.013,12.17 81.674,33.831c21.662,21.661 33.831,51.041 33.831,81.675l-0,40.983Z" style="fill:#6caa98;"/><g id="Layer2"><path d="M286.157,247.702c-0.599,-1.6 -1.23,-3.196 -1.895,-4.789c-22.167,-53.092 -73.447,-82.914 -117.344,-69.76c2.218,-1.249 4.523,-2.359 6.905,-3.353c45.364,-18.941 101.188,11.174 124.583,67.207c5.648,13.527 8.893,27.335 9.927,40.763c-3.035,-12.956 -11.25,-23.655 -22.176,-30.068Z" style="fill:#fefefe;"/></g><g><path d="M357.975,242.383c15.545,0.337 30.571,-5.603 41.684,-16.478c11.113,-10.874 17.376,-25.768 17.376,-41.316l0,-3.171c0,-31.691 -25.515,-57.474 -57.205,-57.805c-24.438,-0.254 -52.509,-0.547 -75.257,-0.784c-6.099,-0.064 -11.539,3.821 -13.459,9.61c-1.92,5.79 0.122,12.156 5.051,15.749c-0,-0 -0,0 -0,0c20.707,15.096 34.023,38.28 36.628,63.772c0.581,5.686 1.142,11.18 1.62,15.854c0.797,7.8 7.281,13.783 15.12,13.953c7.663,0.166 17.796,0.386 28.442,0.616Z" style="fill:#b9a6d0;"/><path d="M411.722,157.178c1.506,5.152 2.313,10.602 2.313,16.24l0,3.171c0,15.548 -6.263,30.442 -17.376,41.316c-11.113,10.875 -26.139,16.815 -41.684,16.478c-10.646,-0.23 -20.779,-0.45 -28.442,-0.616c-4.96,-0.107 -9.377,-2.542 -12.155,-6.292l0.035,0.339c0.797,7.8 7.281,13.783 15.12,13.953c7.663,0.166 17.796,0.386 28.442,0.616c15.545,0.337 30.571,-5.603 41.684,-16.478c11.113,-10.874 17.376,-25.768 17.376,-41.316l0,-3.171c0,-8.651 -1.901,-16.863 -5.313,-24.24Zm-141.304,-19.633c0.205,4.146 2.249,8.093 5.747,10.643c-0,-0 -0,0 -0,0c13.217,9.635 23.423,22.566 29.754,37.291c-5.803,-18.03 -17.191,-33.945 -32.754,-45.291c-0,0 -0,-0 -0,-0c-1.051,-0.766 -1.97,-1.657 -2.747,-2.643Z" style="fill:#a082ff;"/></g></g><g id="Layer1"></g></svg>